<svg width="14" height="14" viewBox="0 0 14 14" fill="none" xmlns="http://www.w3.org/2000/svg">
<path d="M6.36816 6.46869C7.58194 6.53028 8.73405 7.0392 9.59766 7.90228L9.76562 8.07904C10.5809 8.97988 11.0355 10.1541 11.0371 11.3749V13.1249C11.0371 13.2316 11.0056 13.3351 10.9473 13.4228L10.8799 13.5048C10.779 13.6057 10.6423 13.662 10.5 13.662H1.75C1.64336 13.662 1.53988 13.6305 1.45215 13.5722L1.37012 13.5048C1.26924 13.4039 1.21289 13.2672 1.21289 13.1249V11.3749L1.21875 11.1318C1.28035 9.91801 1.78927 8.76588 2.65234 7.90228L2.8291 7.73529C3.67006 6.97401 4.7488 6.52615 5.88184 6.46869L6.125 6.46283L6.36816 6.46869ZM8.04395 8.0517C6.93058 7.40856 5.5752 7.36871 4.43164 7.93158L4.20605 8.0517C3.01866 8.73704 2.28713 10.0041 2.28711 11.3749V12.5878H9.96289L9.96191 11.3749L9.9541 11.1191C9.875 9.93277 9.24887 8.84911 8.26074 8.18744L8.04395 8.0517ZM11.5713 4.31146C11.7797 4.17833 12.0588 4.20389 12.2402 4.3847L12.3086 4.46771C12.4451 4.67374 12.425 4.95385 12.2461 5.13861L11.6973 5.68744L12.2441 6.23431L12.3135 6.31537C12.3742 6.40316 12.4072 6.50789 12.4082 6.61615L12.3984 6.7226C12.3849 6.79235 12.3578 6.85875 12.3184 6.91791L12.251 7.00092C12.1748 7.07751 12.0772 7.12811 11.9727 7.14838L11.8662 7.15814C11.7225 7.15679 11.5854 7.09845 11.4854 6.99506L10.9375 6.4472L10.3887 6.99603C10.2039 7.17489 9.9238 7.19505 9.71777 7.05853L9.63477 6.99017C9.42801 6.78275 9.42454 6.44736 9.62891 6.23627L10.1777 5.68744L9.62891 5.13861C9.42455 4.92753 9.428 4.59213 9.63477 4.3847L9.71777 4.31635C9.89425 4.19945 10.1251 4.19733 10.3037 4.31146L10.3887 4.37885L10.9375 4.92767L11.4863 4.37885L11.5713 4.31146ZM6.125 0.33783C6.84772 0.33783 7.54083 0.62476 8.05176 1.13568L8.23242 1.33588C8.62966 1.82072 8.8496 2.43008 8.84961 3.06244C8.84961 3.69479 8.62965 4.30417 8.23242 4.789L8.05176 4.9892C7.60471 5.43622 7.01829 5.71235 6.39453 5.77435L6.125 5.78705H6.08398L6.08105 5.78412C5.37443 5.77218 4.69969 5.48888 4.19922 4.9892L4.19824 4.98822C3.68823 4.47739 3.40096 3.78495 3.40039 3.06244L3.41309 2.79291C3.47509 2.16915 3.75123 1.5827 4.19824 1.13568L4.39844 0.955017C4.88328 0.557785 5.49264 0.33783 6.125 0.33783ZM5.95605 1.42084C5.12441 1.50628 4.47565 2.2084 4.47461 3.06244L4.47949 3.18646C4.52583 3.80336 4.91549 4.34752 5.49316 4.58685L5.61035 4.62982C6.19815 4.82319 6.84975 4.67167 7.29199 4.22943L7.37598 4.13861C7.75269 3.70091 7.87293 3.09661 7.69238 2.54779L7.64941 2.4306C7.39414 1.81453 6.79216 1.41205 6.125 1.41205L5.95605 1.42084Z" fill="#545F7D" stroke="#545F7D" stroke-width="0.2"/>
</svg>
