<svg width="26" height="26" viewBox="0 0 26 26" fill="none" xmlns="http://www.w3.org/2000/svg">
<path d="M12.9985 1.53313C13.8909 1.53328 14.6959 2.06499 15.0483 2.8847L15.1089 3.03899C15.3427 3.71892 15.2317 4.46787 14.8198 5.05071C16.1884 5.45586 17.3981 6.2817 18.2749 7.41497L18.4458 7.64642C19.2756 8.81772 19.7159 10.2227 19.6997 11.663V13.5976L19.7124 14.1318C19.8389 16.7974 20.9561 19.3268 22.8579 21.2177L22.9175 21.287C23.0432 21.4561 23.0739 21.6818 22.9917 21.8808L22.9907 21.8818C22.896 22.1069 22.6763 22.2548 22.4292 22.2538V22.2548H15.9751C15.68 23.6544 14.4456 24.6697 13.0005 24.6699C11.5552 24.6699 10.3212 23.6545 10.0259 22.2548H3.5708V22.2538C3.35474 22.2546 3.15925 22.142 3.05029 21.9628L3.00928 21.8818L3.0083 21.8808C2.91432 21.6534 2.96767 21.3906 3.14209 21.2177H3.14307C5.17127 19.201 6.3072 16.4575 6.30029 13.5976V11.4921C6.30037 9.97954 6.81235 8.51204 7.75342 7.32806L7.93408 7.11028C8.78956 6.1209 9.91567 5.40332 11.1733 5.04681C10.7325 4.41996 10.64 3.60211 10.9478 2.8847L11.019 2.73431C11.4012 2.00031 12.1617 1.53313 12.9985 1.53313ZM11.2729 22.2548C11.5268 22.9795 12.2132 23.4782 12.9995 23.4784C13.786 23.4784 14.4731 22.9796 14.7271 22.2548H11.2729ZM13.2642 6.00384C11.8574 5.93645 10.4825 6.41186 9.42041 7.3261L9.2124 7.51458C8.12478 8.55105 7.51025 9.98892 7.51221 11.4921V13.5966L7.50244 14.1298C7.39775 16.6483 6.49245 19.068 4.92236 21.0419H21.0767C19.3963 18.9291 18.4791 16.305 18.4878 13.5966V11.6601L18.4858 11.3915C18.4472 10.1424 17.99 8.94306 17.187 7.98528L17.0103 7.78411C16.0378 6.73124 14.6953 6.09315 13.2642 6.00481V6.00384ZM13.0005 2.75481C12.4377 2.75481 11.9811 3.21058 11.981 3.77337C11.981 4.18514 12.2296 4.55686 12.6108 4.71478H12.6099C12.9428 4.85225 13.3202 4.80325 13.605 4.59368L13.7212 4.49407C13.9756 4.23853 14.0732 3.87165 13.9888 3.52923L13.9419 3.38372C13.784 3.00272 13.4121 2.75497 13.0005 2.75481Z" fill="#213F7D" stroke="#213F7D" stroke-width="0.4"/>
</svg>
