<svg width="16" height="12" viewBox="0 0 16 12" fill="none" xmlns="http://www.w3.org/2000/svg">
<path opacity="0.4" d="M15.5 0H9V2H15.5C15.6326 2 15.7598 1.94732 15.8536 1.85355C15.9473 1.75979 16 1.63261 16 1.5V0.5C16 0.367392 15.9473 0.240215 15.8536 0.146447C15.7598 0.0526785 15.6326 0 15.5 0V0ZM0.5 2H6V0H0.5C0.367392 0 0.240215 0.0526785 0.146447 0.146447C0.0526784 0.240215 0 0.367392 0 0.5L0 1.5C0 1.63261 0.0526784 1.75979 0.146447 1.85355C0.240215 1.94732 0.367392 2 0.5 2ZM0.5 7H10V5H0.5C0.367392 5 0.240215 5.05268 0.146447 5.14645C0.0526784 5.24021 0 5.36739 0 5.5L0 6.5C0 6.63261 0.0526784 6.75979 0.146447 6.85355C0.240215 6.94732 0.367392 7 0.5 7ZM15.5 5H13V7H15.5C15.6326 7 15.7598 6.94732 15.8536 6.85355C15.9473 6.75979 16 6.63261 16 6.5V5.5C16 5.36739 15.9473 5.24021 15.8536 5.14645C15.7598 5.05268 15.6326 5 15.5 5ZM15.5 10H5V12H15.5C15.6326 12 15.7598 11.9473 15.8536 11.8536C15.9473 11.7598 16 11.6326 16 11.5V10.5C16 10.3674 15.9473 10.2402 15.8536 10.1464C15.7598 10.0527 15.6326 10 15.5 10ZM0 10.5V11.5C0 11.6326 0.0526784 11.7598 0.146447 11.8536C0.240215 11.9473 0.367392 12 0.5 12H2V10H0.5C0.367392 10 0.240215 10.0527 0.146447 10.1464C0.0526784 10.2402 0 10.3674 0 10.5H0Z" fill="#213F7D"/>
</svg>
