<svg width="16" height="14" viewBox="0 0 16 14" fill="none" xmlns="http://www.w3.org/2000/svg">
<path d="M9.40759 5.34875C9.56932 5.33354 9.71717 5.44565 9.76013 5.59583L9.77966 5.66614L9.7738 5.66907C9.77413 5.67066 9.77444 5.67229 9.77478 5.67395C9.78301 5.71475 9.79438 5.7727 9.80603 5.84387C9.82932 5.98614 9.85454 6.18387 9.86169 6.41711C9.87595 6.88305 9.819 7.49615 9.52966 8.09875L9.52869 8.10071C9.20071 8.75576 8.56353 9.49296 8.32556 9.75305C8.33342 9.8848 8.34399 9.99273 8.35291 10.0695C8.35776 10.1112 8.3615 10.1442 8.36462 10.1661C8.36619 10.1771 8.36769 10.1861 8.36853 10.1915C8.36869 10.1926 8.3684 10.1936 8.36853 10.1945C8.41373 10.384 8.27386 10.5628 8.09216 10.5861L8.07947 10.588V10.587H8.03162C7.88398 10.587 7.72651 10.4853 7.69568 10.3224C7.69228 10.3125 7.68844 10.3036 7.68689 10.297C7.68384 10.2839 7.68101 10.2675 7.6781 10.2501C7.67227 10.2153 7.66659 10.1692 7.66052 10.1144C7.6487 10.0076 7.63648 9.86367 7.6283 9.69348C7.62185 9.67782 7.61171 9.65536 7.59607 9.62415C7.58118 9.59443 7.56406 9.5586 7.54822 9.52161C7.29649 9.27663 6.91339 8.86362 6.61267 8.35852C6.30719 7.84525 6.07948 7.22515 6.17224 6.58508C6.17827 6.44826 6.26679 6.34613 6.37927 6.30676L6.43103 6.29309C6.97654 6.15866 7.38945 6.30935 7.65369 6.47766C7.99815 5.9844 8.40521 5.70292 8.7406 5.54504C8.91724 5.46192 9.07371 5.41229 9.18982 5.38391C9.28679 5.36023 9.36001 5.35215 9.39392 5.34973V5.34875C9.3965 5.3484 9.39917 5.34905 9.40173 5.34875C9.40395 5.34866 9.40592 5.34778 9.40759 5.34778V5.34875ZM9.13806 6.12317C8.97847 6.18263 8.77781 6.28552 8.57263 6.45813C8.6856 6.39547 8.82684 6.40723 8.93787 6.48645C9.09939 6.60195 9.11772 6.81015 9.00916 6.96204V6.96301C8.62969 7.48184 8.44531 8.07563 8.35583 8.61047C8.49098 8.43551 8.62635 8.24595 8.74158 8.05872L8.90271 7.77161C9.20841 7.1597 9.19924 6.49444 9.13806 6.12317ZM8.47009 6.54797C8.30761 6.70395 8.14694 6.90752 8.00818 7.17395C7.91385 7.37116 7.86152 7.57608 7.84119 7.7804C7.97532 7.36687 8.1723 6.94514 8.46228 6.55774L8.47009 6.54797ZM6.82263 6.93567C6.82597 7.03689 6.83698 7.13841 6.85876 7.23938C6.88064 7.17824 6.92093 7.12178 6.98181 7.07825L6.9906 7.07239C7.06095 7.03226 7.14356 7.01578 7.22302 7.02551C7.12151 6.97452 6.98877 6.93567 6.82263 6.93567Z" fill="#213F7D" stroke="#213F7D" stroke-width="0.2"/>
<path d="M4.80029 4.42035C4.98355 4.42048 5.14014 4.57692 5.14014 4.76019V10.8403C5.13996 11.0234 4.98344 11.18 4.80029 11.1801C4.61704 11.1801 4.46063 11.0235 4.46045 10.8403V4.76019C4.46045 4.57684 4.61694 4.42035 4.80029 4.42035Z" fill="#213F7D" stroke="#213F7D" stroke-width="0.2"/>
<path d="M3.20032 4.42035C3.38357 4.42048 3.54016 4.57692 3.54016 4.76019V10.8403C3.53998 11.0234 3.38347 11.18 3.20032 11.1801C3.01707 11.1801 2.86065 11.0235 2.86047 10.8403V4.76019C2.86047 4.57684 3.01696 4.42035 3.20032 4.42035Z" fill="#213F7D" stroke="#213F7D" stroke-width="0.2"/>
<path d="M11.2003 4.42035C11.3836 4.42048 11.5402 4.57692 11.5402 4.76019V10.8403C11.54 11.0234 11.3835 11.18 11.2003 11.1801C11.0171 11.1801 10.8607 11.0235 10.8605 10.8403V4.76019C10.8605 4.57684 11.017 4.42035 11.2003 4.42035Z" fill="#213F7D" stroke="#213F7D" stroke-width="0.2"/>
<path d="M12.8003 4.42035C12.9835 4.42048 13.1401 4.57692 13.1401 4.76019V10.8403C13.14 11.0234 12.9834 11.18 12.8003 11.1801C12.617 11.1801 12.4606 11.0235 12.4604 10.8403V4.76019C12.4604 4.57684 12.6169 4.42035 12.8003 4.42035Z" fill="#213F7D" stroke="#213F7D" stroke-width="0.2"/>
<path d="M7.83618 0.465942C7.94323 0.401549 8.08406 0.395122 8.18677 0.471802L13.5208 3.64856C13.6353 3.70074 13.716 3.83048 13.7161 3.95911V3.9718L13.7141 3.97083C13.7005 4.08283 13.6324 4.18724 13.5354 4.24719L13.5823 4.29993H2.63989C2.48447 4.29986 2.34211 4.18962 2.31763 4.04016L2.3186 4.03918C2.27903 3.88182 2.35227 3.74951 2.4729 3.66907L2.47681 3.66614L7.83618 0.466919V0.465942ZM3.86548 3.62024H12.1194L7.99927 1.14758L3.86548 3.62024Z" fill="#213F7D" stroke="#213F7D" stroke-width="0.2"/>
<path d="M13.36 11.3004C13.5433 11.3004 13.6998 11.4568 13.6998 11.6402C13.6997 11.8235 13.5433 11.98 13.36 11.98H2.64026C2.45698 11.98 2.30055 11.8235 2.30042 11.6402C2.30042 11.4568 2.45691 11.3004 2.64026 11.3004H13.36Z" fill="#213F7D" stroke="#213F7D" stroke-width="0.2"/>
<path d="M14.1597 12.1003C14.343 12.1003 14.5005 12.2568 14.5005 12.4402C14.5004 12.6234 14.3429 12.78 14.1597 12.78H1.84033C1.65706 12.78 1.50062 12.6234 1.50049 12.4402C1.50049 12.2568 1.65698 12.1003 1.84033 12.1003H14.1597Z" fill="#213F7D" stroke="#213F7D" stroke-width="0.2"/>
<path d="M14.9602 12.9003C15.1435 12.9004 15.3 13.0569 15.3 13.2402C15.2999 13.4234 15.1434 13.5799 14.9602 13.58H1.04028C0.857008 13.58 0.700573 13.4234 0.700439 13.2402C0.700439 13.0568 0.85693 12.9003 1.04028 12.9003H14.9602Z" fill="#213F7D" stroke="#213F7D" stroke-width="0.2"/>
</svg>
